<svg width="32" height="32" viewBox="0 0 32 32" fill="none" xmlns="http://www.w3.org/2000/svg">
<g filter="url(#filter0_d_6948_631)">
<rect x="2" y="1" width="28" height="28" rx="14" fill="#757575"/>
<path d="M21.5118 9.48816L21.8654 9.1346V9.1346L21.5118 9.48816ZM12.3333 21.0237V21.5237C12.4659 21.5237 12.5931 21.471 12.6869 21.3772L12.3333 21.0237ZM10 21.0237H9.5C9.5 21.2998 9.72386 21.5237 10 21.5237V21.0237ZM10 18.6429L9.64645 18.2894C9.55268 18.3832 9.5 18.5103 9.5 18.6429H10ZM19.5083 9.84171C19.9639 9.3861 20.7026 9.3861 21.1583 9.84171L21.8654 9.1346C21.0192 8.28847 19.6474 8.28847 18.8012 9.1346L19.5083 9.84171ZM21.1583 9.84171C21.6139 10.2973 21.6139 11.036 21.1583 11.4916L21.8654 12.1987C22.7115 11.3526 22.7115 9.98074 21.8654 9.1346L21.1583 9.84171ZM21.1583 11.4916L11.9798 20.6701L12.6869 21.3772L21.8654 12.1987L21.1583 11.4916ZM12.3333 20.5237H10V21.5237H12.3333V20.5237ZM18.8012 9.1346L9.64645 18.2894L10.3536 18.9965L19.5083 9.84171L18.8012 9.1346ZM9.5 18.6429V21.0237H10.5V18.6429H9.5ZM17.8012 10.8417L20.1583 13.1987L20.8654 12.4916L18.5083 10.1346L17.8012 10.8417Z" fill="white"/>
</g>
<defs>
<filter id="filter0_d_6948_631" x="0" y="0" width="32" height="32" filterUnits="userSpaceOnUse" color-interpolation-filters="sRGB">
<feFlood flood-opacity="0" result="BackgroundImageFix"/>
<feColorMatrix in="SourceAlpha" type="matrix" values="0 0 0 0 0 0 0 0 0 0 0 0 0 0 0 0 0 0 127 0" result="hardAlpha"/>
<feOffset dy="1"/>
<feGaussianBlur stdDeviation="1"/>
<feColorMatrix type="matrix" values="0 0 0 0 0 0 0 0 0 0 0 0 0 0 0 0 0 0 0.05 0"/>
<feBlend mode="normal" in2="BackgroundImageFix" result="effect1_dropShadow_6948_631"/>
<feBlend mode="normal" in="SourceGraphic" in2="effect1_dropShadow_6948_631" result="shape"/>
</filter>
</defs>
</svg>
